<svg width="18" height="21" viewBox="0 0 18 21" fill="none" xmlns="http://www.w3.org/2000/svg">
<path d="M15.9267 0.299927C16.1294 0.299927 16.3233 0.339583 16.5083 0.418896C16.7991 0.533458 17.0305 0.714115 17.2023 0.960865C17.3741 1.20762 17.4601 1.4808 17.4601 1.78043V18.8194C17.4601 19.119 17.3741 19.3922 17.2023 19.639C17.0305 19.8857 16.7991 20.0664 16.5083 20.181C16.3409 20.2515 16.147 20.2867 15.9267 20.2867C15.5037 20.2867 15.138 20.1457 14.8295 19.8637L9.00005 14.2589L3.17057 19.8637C2.85332 20.1545 2.4876 20.2999 2.07342 20.2999C1.87073 20.2999 1.67685 20.2603 1.49179 20.181C1.20098 20.0664 0.969649 19.8857 0.797805 19.639C0.625961 19.3922 0.540039 19.119 0.540039 18.8194V1.78043C0.540039 1.4808 0.625961 1.20762 0.797805 0.960865C0.969649 0.714115 1.20098 0.533458 1.49179 0.418896C1.67685 0.339583 1.87073 0.299927 2.07342 0.299927H15.9267Z" fill="#5A698F"/>
</svg>
