<svg width="20" height="21" viewBox="0 0 20 21" fill="none" xmlns="http://www.w3.org/2000/svg">
<path fill-rule="evenodd" clip-rule="evenodd" d="M1 0.299927H8C8.6 0.299927 9 0.699927 9 1.29993V8.29993C9 8.89993 8.6 9.29993 8 9.29993H1C0.4 9.29993 0 8.89993 0 8.29993V1.29993C0 0.699927 0.4 0.299927 1 0.299927ZM1 11.2999H8C8.6 11.2999 9 11.6999 9 12.2999V19.2999C9 19.8999 8.6 20.2999 8 20.2999H1C0.4 20.2999 0 19.8999 0 19.2999V12.2999C0 11.6999 0.4 11.2999 1 11.2999ZM19 0.299927H12C11.4 0.299927 11 0.699927 11 1.29993V8.29993C11 8.89993 11.4 9.29993 12 9.29993H19C19.6 9.29993 20 8.89993 20 8.29993V1.29993C20 0.699927 19.6 0.299927 19 0.299927ZM12 11.2999H19C19.6 11.2999 20 11.6999 20 12.2999V19.2999C20 19.8999 19.6 20.2999 19 20.2999H12C11.4 20.2999 11 19.8999 11 19.2999V12.2999C11 11.6999 11.4 11.2999 12 11.2999Z" fill="white"/>
</svg>
